<?xml version="1.0" encoding="UTF-8"?>
<svg width="100px" height="100px" viewBox="0 0 100 100" version="1.1" xmlns="http://www.w3.org/2000/svg" xmlns:xlink="http://www.w3.org/1999/xlink">
    <!-- Generator: Sketch 55.2 (78181) - https://sketchapp.com -->
    <title>email</title>
    <desc>Created with Sketch.</desc>
    <g id="email" stroke="none" stroke-width="1" fill="none" fill-rule="evenodd">
        <rect fill="#FFFFFF" x="0" y="0" width="100" height="100"></rect>
        <path d="M83,8 C87.96875,8 92,12.03125 92,17 L92,83 C92,87.96875 87.96875,92 83,92 L17,92 C12.03125,92 8,87.96875 8,83 L8,17 C8,12.03125 12.03125,8 17,8 L83,8 Z" id="Combined-Shape" fill="#3E3E3E" fill-rule="nonzero"></path>
        <path d="M74.9958984,41.2083333 C75.3996094,40.8854167 76,41.1875 76,41.6979167 L76,63 C76,65.7604167 73.7744141,68 71.03125,68 L27.96875,68 C25.2255859,68 23,65.7604167 23,63 L23,41.7083333 C23,41.1875 23.5900391,40.8958333 24.0041016,41.21875 C26.3228516,43.03125 29.3972656,45.3333333 39.9558594,53.0520833 C42.1400391,54.65625 45.8251953,58.03125 49.5,58.0104167 C53.1955078,58.0416667 56.953125,54.59375 59.0544922,53.0520833 C69.6130859,45.3333333 72.6771484,43.0208333 74.9958984,41.2083333 Z M49.5,54.6666667 C51.9015625,54.7083333 55.3589844,51.625 57.0980469,50.3541667 C70.8345703,40.3229167 71.8800781,39.4479167 75.0476563,36.9479167 C75.6480469,36.4791667 76,35.75 76,34.9791667 L76,33 C76,30.2395833 73.7744141,28 71.03125,28 L27.96875,28 C25.2255859,28 23,30.2395833 23,33 L23,34.9791667 C23,35.75 23.3519531,36.46875 23.9523438,36.9479167 C27.1199219,39.4375 28.1654297,40.3229167 41.9019531,50.3541667 C43.6410156,51.625 47.0984375,54.7083333 49.5,54.6666667 Z" id="Shape" fill="#FFFFFF" fill-rule="nonzero"></path>
    </g>
</svg>