<?xml version="1.0" encoding="UTF-8"?>
<svg width="100px" height="100px" viewBox="0 0 100 100" version="1.1" xmlns="http://www.w3.org/2000/svg" xmlns:xlink="http://www.w3.org/1999/xlink">
    <!-- Generator: Sketch 55.2 (78181) - https://sketchapp.com -->
    <title>github</title>
    <desc>Created with Sketch.</desc>
    <g id="github" stroke="none" stroke-width="1" fill="none" fill-rule="evenodd">
        <rect fill="#FFFFFF" x="0" y="0" width="100" height="100"></rect>
        <path d="M83,8 L17,8 C12.03125,8 8,12.03125 8,17 L8,83 C8,87.96875 12.03125,92 17,92 L83,92 C87.96875,92 92,87.96875 92,83 L92,17 C92,12.03125 87.96875,8 83,8 Z M59.99375,79.94375 C58.41875,80.225 57.8375,79.25 57.8375,78.44375 C57.8375,77.43125 57.875,72.25625 57.875,68.075 C57.875,65.15 56.9,63.29375 55.75625,62.31875 C62.69375,61.55 70.00625,60.59375 70.00625,48.6125 C70.00625,45.2 68.7875,43.49375 66.8,41.3 C67.11875,40.49375 68.1875,37.175 66.48125,32.8625 C63.875,32.05625 57.9125,36.21875 57.9125,36.21875 C55.4375,35.525 52.75625,35.16875 50.1125,35.16875 C47.46875,35.16875 44.7875,35.525 42.3125,36.21875 C42.3125,36.21875 36.35,32.05625 33.74375,32.8625 C32.0375,37.15625 33.0875,40.475 33.425,41.3 C31.4375,43.49375 30.5,45.2 30.5,48.6125 C30.5,60.5375 37.49375,61.55 44.43125,62.31875 C43.53125,63.125 42.725,64.5125 42.44375,66.5 C40.6625,67.30625 36.10625,68.69375 33.3875,63.89375 C31.68125,60.93125 28.60625,60.6875 28.60625,60.6875 C25.56875,60.65 28.4,62.6 28.4,62.6 C30.425,63.5375 31.85,67.1375 31.85,67.1375 C33.66875,72.70625 42.36875,70.83125 42.36875,70.83125 C42.36875,73.4375 42.40625,77.675 42.40625,78.44375 C42.40625,79.25 41.84375,80.225 40.25,79.94375 C27.875,75.8 19.2125,64.025 19.2125,50.2625 C19.2125,33.05 32.375,19.98125 49.5875,19.98125 C66.8,19.98125 80.7500313,33.05 80.7500313,50.2625 C80.76875,64.025 72.36875,75.81875 59.99375,79.94375 Z M41.6,68.4875 C41.24375,68.5625 40.90625,68.4125 40.86875,68.16875 C40.83125,67.8875 41.075,67.64375 41.43125,67.56875 C41.7875,67.53125 42.125,67.68125 42.1625,67.925 C42.21875,68.16875 41.975,68.4125 41.6,68.4875 Z M39.81875,68.31875 C39.81875,68.5625 39.5375,68.76875 39.1625,68.76875 C38.75,68.80625 38.46875,68.6 38.46875,68.31875 C38.46875,68.075 38.75,67.86875 39.125,67.86875 C39.48125,67.83125 39.81875,68.0375 39.81875,68.31875 Z M37.25,68.1125 C37.175,68.35625 36.8,68.46875 36.48125,68.35625 C36.125,68.28125 35.88125,68 35.95625,67.75625 C36.03125,67.5125 36.40625,67.4 36.725,67.475 C37.1,67.5875 37.34375,67.86875 37.25,68.1125 Z M34.94375,67.1 C34.775,67.30625 34.41875,67.26875 34.1375,66.9875 C33.85625,66.74375 33.78125,66.3875 33.96875,66.21875 C34.1375,66.0125 34.49375,66.05 34.775,66.33125 C35.01875,66.575 35.1125,66.95 34.94375,67.1 Z M33.2375,65.39375 C33.06875,65.50625 32.75,65.39375 32.54375,65.1125 C32.3375,64.83125 32.3375,64.5125 32.54375,64.38125 C32.75,64.2125 33.06875,64.34375 33.2375,64.625 C33.44375,64.90625 33.44375,65.24375 33.2375,65.39375 L33.2375,65.39375 Z M32.01875,63.575 C31.85,63.74375 31.56875,63.65 31.3625,63.4625 C31.15625,63.21875 31.11875,62.9375 31.2875,62.80625 C31.45625,62.6375 31.7375,62.73125 31.94375,62.91875 C32.15,63.1625 32.1875,63.44375 32.01875,63.575 Z M30.7625,62.1875 C30.6875,62.35625 30.44375,62.39375 30.2375,62.2625 C29.99375,62.15 29.88125,61.94375 29.95625,61.775 C30.03125,61.6625 30.2375,61.60625 30.48125,61.7 C30.725,61.83125 30.8375,62.0375 30.7625,62.1875 Z" id="Shape" fill="#3E3E3E" fill-rule="nonzero"></path>
    </g>
</svg>