<?xml version="1.0" encoding="UTF-8" standalone="no"?>
<svg width="157px" height="157px" viewBox="0 0 157 157" version="1.1" xmlns="http://www.w3.org/2000/svg" xmlns:xlink="http://www.w3.org/1999/xlink">
    <!-- Generator: Sketch 3.7.2 (28276) - http://www.bohemiancoding.com/sketch -->
    <title>Group</title>
    <desc>Created with Sketch.</desc>
    <defs></defs>
    <g id="Landing-Page" stroke="none" stroke-width="1" fill="none" fill-rule="evenodd">
        <g id="Desktop-HD" transform="translate(-778.000000, -312.000000)" fill="#000000">
            <g id="Group" transform="translate(778.000000, 312.000000)">
                <text id="--copy" transform="translate(72.000000, 134.972973) rotate(-90.000000) translate(-72.000000, -134.972973) " font-family="LucidaGrande-Bold, Lucida Grande" font-size="67.7040573" font-weight="bold">
                    <tspan x="50.7593228" y="160.472973">-</tspan>
                </text>
                <path d="M109.420048,63.4826006 C109.420048,46.4802467 95.6722546,32.6943124 78.7100239,32.6943124 C61.7477932,32.6943124 48,46.4802467 48,63.4826006 C48,80.4849546 61.7477932,94.2708889 78.7100239,94.2708889 C95.6722546,94.2708889 109.420048,80.4849546 109.420048,63.4826006 Z M67.2660305,73.6756757 L67.2660305,70.2733925 L71.3432606,70.2733925 L71.3432606,73.6756757 L67.2660305,73.6756757 Z M67.9409774,67.9041913 L67.2660305,57.3667556 L67.2660305,53.2895256 L71.3432606,53.2895256 L71.3432606,57.3667556 L70.6683137,67.9041913 L67.9409774,67.9041913 Z M76.5637679,73.6756757 L78.0376315,67.8077703 L74.2634388,67.8077703 L74.6628972,65.7691553 L78.5472852,65.7691553 L79.6905625,61.1822716 L75.5857837,61.1822716 L75.985242,59.1436565 L80.2002163,59.1436565 L81.6740798,53.2895256 L83.7677925,53.2895256 L82.3077034,59.1436565 L85.916603,59.1436565 L87.3766921,53.2895256 L89.4841792,53.2895256 L88.0240901,59.1436565 L91.7845083,59.1436565 L91.38505,61.1822716 L87.5144363,61.1822716 L86.3573846,65.7691553 L90.4759379,65.7691553 L90.0627051,67.8077703 L85.8477308,67.8077703 L84.3876417,73.6756757 L82.2801546,73.6756757 L83.7540181,67.8077703 L80.1313442,67.8077703 L78.671255,73.6756757 L76.5637679,73.6756757 Z M80.6409979,65.7691553 L84.2636719,65.7691553 L85.4069492,61.1822716 L81.7980497,61.1822716 L80.6409979,65.7691553 Z" id="Combined-Shape"></path>
                <text id="-copy" transform="translate(73.000000, 108.806306) rotate(-90.000000) translate(-73.000000, -108.806306) " font-family="LucidaGrande-Bold, Lucida Grande" font-size="67.7040573" font-weight="bold">
                    <tspan x="60.9085061" y="134.306306">}</tspan>
                </text>
                <path d="M0,0 L157,0 L157,157 L0,157 L0,0 Z M10,10 L147,10 L147,147 L10,147 L10,10 Z" id="Combined-Shape"></path>
            </g>
        </g>
    </g>
</svg>