<?xml version="1.0" encoding="utf-8"?>
<!-- Generator: Adobe Illustrator 16.0.0, SVG Export Plug-In . SVG Version: 6.00 Build 0)  -->
<!DOCTYPE svg PUBLIC "-//W3C//DTD SVG 1.1//EN" "http://www.w3.org/Graphics/SVG/1.1/DTD/svg11.dtd">
<svg version="1.1" xmlns="http://www.w3.org/2000/svg" xmlns:xlink="http://www.w3.org/1999/xlink" x="0px" y="0px" width="300px"
	 height="1200px" viewBox="0 0 300 1200" enable-background="new 0 0 300 1200" xml:space="preserve">
<g id="Layer_1">
</g>
<g id="Layer_2">
	<g>
		<g>
			<path fill="#F8D45F" d="M131.358,1019.246c3.934,3.935,1.84,12.622,1.84,12.622s-0.328-3.32-0.848-6.165
				c-0.047-0.259-0.106-0.516-0.179-0.767c-1.352-3.823-13.107,7.445-9.54,9.066c0.649,0.324,1.298,0.486,2.001,0.58
				c0.353,0.065,0.71,0.115,1.074,0.149c13.115,1.215,32.647-13.737,50.257,3.874c9.729,9.728,7.07,26.162-2.164,35.396
				c-8.05,8.049-23.548,12.005-36.203,1.676c-15.101-12.325-6.128-33.163-6.128-33.163s-4.251,22.687,15.199,29.498
				c10.382,3.637,19.478-3.681,22.013-9.083c7.265-15.481-4.653-26.357-13.966-27.663c-7.868-1.104-29.367,7.491-35.913,1.715
				c-6.763-5.968-4.58-13.447-1.154-16.872C121.664,1016.092,128.537,1016.425,131.358,1019.246z"/>
		</g>
	</g>
	<g>
		<g>
			<g>
				<path fill="#F8D45F" d="M54.514,154.913l12.303-3.214l-0.291-1.114l-12.32,3.219c0.107,0.172,0.191,0.361,0.245,0.564
					C54.499,154.55,54.517,154.733,54.514,154.913z"/>
				<path fill="#F8D45F" d="M47.26,162.55l0.985,0.592l3.784-6.291c-0.385-0.09-0.73-0.289-1-0.568L47.26,162.55z"/>
				<path fill="#F8D45F" d="M51.301,153.241l-10.839-10.54l-0.48,0.495l10.839,10.541C50.951,153.548,51.113,153.38,51.301,153.241z
					"/>
				<path fill="#F8D45F" d="M53.679,156.517l1.537,1.494l0.481-0.494l-1.537-1.494C54.031,156.212,53.869,156.38,53.679,156.517z"/>
				<path fill="#F8D45F" d="M54.161,156.022c0.221-0.324,0.348-0.709,0.354-1.109c0.003-0.18-0.016-0.363-0.063-0.545
					c-0.054-0.203-0.138-0.393-0.245-0.564c-0.363-0.578-1.004-0.949-1.713-0.949c-0.174,0-0.346,0.021-0.514,0.066
					c-0.252,0.064-0.479,0.178-0.678,0.32c-0.188,0.139-0.351,0.307-0.48,0.496c-0.318,0.469-0.443,1.064-0.289,1.654
					c0.09,0.344,0.266,0.646,0.498,0.891c0.27,0.279,0.615,0.479,1,0.568c0.148,0.035,0.303,0.055,0.46,0.055l0,0
					c0.173,0,0.346-0.023,0.514-0.066c0.251-0.066,0.479-0.178,0.676-0.322C53.869,156.38,54.031,156.212,54.161,156.022z
					 M52.712,155.728c-0.073,0.018-0.147,0.027-0.223,0.027c-0.396,0-0.744-0.27-0.845-0.654c-0.123-0.467,0.157-0.947,0.625-1.068
					c0.072-0.02,0.148-0.027,0.223-0.027c0.396,0,0.744,0.268,0.845,0.654C53.459,155.126,53.178,155.604,52.712,155.728z"/>
			</g>
			<path fill="#F8D45F" d="M27.358,112.095c4.868,4.869,2.277,15.623,2.277,15.623s-0.406-4.11-1.051-7.631
				c-0.058-0.32-0.131-0.638-0.221-0.949c-1.672-4.731-16.223,9.215-11.806,11.222c0.802,0.401,1.604,0.603,2.476,0.718
				c0.436,0.082,0.879,0.143,1.33,0.185c16.231,1.503,40.405-17.001,62.201,4.794c12.041,12.041,8.75,32.381-2.679,43.811
				c-9.964,9.963-29.146,14.857-44.808,2.074c-18.689-15.254-7.584-41.045-7.584-41.045s-5.262,28.078,18.811,36.51
				c12.85,4.5,24.107-4.557,27.245-11.242c8.991-19.162-5.759-32.623-17.286-34.238c-9.736-1.366-36.346,9.271-44.447,2.121
				c-8.371-7.385-5.669-16.643-1.43-20.881C15.36,108.191,23.866,108.603,27.358,112.095z"/>
		</g>
		<g>
			<g>
				<g>
					<path fill="#F8D45F" d="M108.442,145.892h1.033c0.126,1.943,0.439,2.946,1.286,3.949c1.003,1.16,2.633,1.787,4.702,1.787
						c2.853,0,4.545-1.504,4.545-4.075c0-2.477-1.159-3.668-5.83-5.925c-2.664-1.285-3.637-1.881-4.515-2.822
						c-0.909-0.971-1.38-2.193-1.38-3.698c0-1.851,0.69-3.417,1.976-4.546c1.191-1.035,2.603-1.506,4.483-1.506
						c1.191,0,1.725,0.064,3.699,0.533c0.47,0.096,0.846,0.158,1.16,0.158c0.471,0,1.033-0.158,1.881-0.471l-0.189,6.176h-1.033
						c-0.125-1.537-0.377-2.445-0.878-3.292c-0.878-1.442-2.478-2.226-4.515-2.226c-1.504,0-2.57,0.438-3.322,1.316
						c-0.564,0.721-0.91,1.693-0.91,2.727c0,2.07,1.004,3.105,4.734,4.86c3.918,1.849,5.393,2.884,6.27,4.263
						c0.627,0.973,0.878,2.007,0.878,3.449c0,1.85-0.596,3.26-1.786,4.264c-1.317,1.159-3.042,1.725-5.111,1.725
						c-1.223,0-2.006-0.094-4.2-0.534c-0.376-0.062-0.721-0.094-1.035-0.094c-0.501,0-1.065,0.094-2.163,0.313L108.442,145.892z"/>
					<path fill="#F8D45F" d="M135.245,148.18c0,2.884,0.188,3.135,2.445,3.198v0.783h-7.649v-0.783
						c2.226-0.063,2.413-0.283,2.413-3.198v-14.765c0-2.916-0.156-3.104-2.413-3.23v-0.752h7.649v0.752
						c-2.289,0.126-2.445,0.314-2.445,3.23v8.088l7.461-7.838c0.972-1.004,1.473-1.85,1.473-2.414c0-0.689-0.532-1.003-1.911-1.066
						v-0.752h7.429v0.752c-1.755,0.126-3.197,1.004-5.297,3.262l-4.797,5.109l7.147,10.282c1.317,1.85,2.132,2.445,3.793,2.634
						v0.689h-5.173c-0.877-1.537-1.473-2.508-2.257-3.668l-5.423-8.088l-2.445,2.508V148.18z"/>
					<path fill="#F8D45F" d="M165.403,152.286h-2.008l-4.607-18.777c-0.346-1.443-0.723-2.32-1.223-2.76
						c-0.346-0.312-0.785-0.438-1.85-0.533v-0.783h8.088v0.783c-1.004,0.032-1.443,0.095-1.756,0.283
						c-0.471,0.219-0.721,0.658-0.721,1.223c0,0.47,0.062,0.846,0.439,2.319l3.51,14.766l5.549-19.122h2.008l5.141,18.902
						l3.637-13.699c0.281-1.035,0.471-2.163,0.471-2.822c0-0.846-0.408-1.41-1.129-1.66c-0.408-0.126-0.879-0.189-1.537-0.189
						v-0.783h7.148v0.783c-2.006,0.189-2.664,1.004-3.637,4.516l-4.859,17.555h-1.787l-5.203-19.217L165.403,152.286z"/>
					<path fill="#F8D45F" d="M193.962,147.114c-0.377,1.003-0.596,1.975-0.596,2.57c0,1.129,0.814,1.63,2.633,1.693v0.783h-7.336
						v-0.783c1.787,0,2.822-1.098,4.014-4.264l6.676-17.682l1.945-0.219l6.645,18.935c0.879,2.57,1.475,3.166,3.293,3.229v0.783
						h-8.09v-0.783c1.6-0.063,2.258-0.439,2.258-1.348c0-0.377-0.125-1.004-0.375-1.788l-1.316-3.95h-8.748L193.962,147.114z
						 M199.479,132.16l-4.076,10.973h7.9L199.479,132.16z"/>
					<path fill="#F8D45F" d="M226.095,148.18c0,1.851,0.125,2.444,0.564,2.79c0.312,0.282,1.127,0.408,2.383,0.408v0.783h-8.779
						v-0.783c1.35,0,2.102-0.157,2.414-0.471c0.408-0.346,0.502-0.973,0.502-2.728v-17.995c-5.611,0.063-6.52,0.784-7.305,5.895
						l-1.004-0.063l0.564-6.583h18.436l0.562,6.583l-1.002,0.063c-0.816-5.11-1.693-5.831-7.336-5.895V148.18z"/>
					<path fill="#F8D45F" d="M258.823,136.612c-0.283-1.944-0.721-3.104-1.568-4.232c-1.285-1.599-3.197-2.539-5.234-2.539
						c-2.258,0-4.357,1.159-5.486,3.041c-1.191,1.912-1.818,4.576-1.818,7.617c0,6.552,3.135,10.847,7.869,10.847
						c3.479,0,6.301-2.132,7.523-5.675l0.908,0.408c-0.689,1.818-1.473,3.072-2.57,4.139c-1.6,1.536-3.98,2.383-6.74,2.383
						c-2.82,0-5.359-1.098-7.211-3.072c-1.943-2.101-2.945-4.954-2.945-8.434c0-4.389,1.598-8.119,4.42-10.188
						c1.598-1.222,3.824-1.913,5.926-1.913c1.223,0,2.602,0.252,3.98,0.691c1.473,0.469,1.787,0.531,2.32,0.531
						c0.439,0,0.596-0.062,1.629-0.438v6.834H258.823z"/>
					<path fill="#F8D45F" d="M273.024,148.18c0,2.884,0.188,3.135,2.445,3.198v0.783h-7.713v-0.783
						c2.227-0.063,2.414-0.283,2.414-3.198v-14.765c0-2.916-0.156-3.104-2.414-3.199v-0.783h7.713v0.783
						c-2.289,0.095-2.445,0.283-2.445,3.199v6.237h11.85v-6.237c0-2.916-0.156-3.104-2.445-3.199v-0.783h7.711v0.783
						c-2.256,0.095-2.412,0.283-2.412,3.199v14.765c0,2.884,0.188,3.135,2.412,3.198v0.783h-7.711v-0.783
						c2.256-0.063,2.445-0.314,2.445-3.198v-7.524h-11.85V148.18z"/>
				</g>
			</g>
			<g>
				<path fill="#F8D45F" d="M143.721,169.339c-0.438,0-0.717-0.041-0.834-0.123c-0.166-0.107-0.278-0.373-0.338-0.799
					c-0.129,0.295-0.33,0.545-0.604,0.744c-0.271,0.201-0.556,0.303-0.852,0.303c-0.615,0-1.059-0.172-1.332-0.516
					c-0.235-0.307-0.354-0.773-0.354-1.402c0-0.365,0.082-0.686,0.248-0.957c0.166-0.273,0.396-0.48,0.691-0.623
					c0.049-0.023,0.164-0.072,0.347-0.15c0.184-0.076,0.446-0.18,0.79-0.309c0.249-0.096,0.441-0.174,0.577-0.232
					s0.216-0.1,0.239-0.123c0.07-0.049,0.119-0.115,0.143-0.205c0.023-0.088,0.035-0.191,0.035-0.311v-0.23
					c0-0.379-0.077-0.645-0.231-0.799c-0.153-0.154-0.419-0.23-0.798-0.23c-0.402,0-0.663,0.094-0.781,0.283
					c-0.106,0.166-0.16,0.457-0.16,0.869h-0.834c0-0.674,0.154-1.164,0.462-1.473c0.308-0.307,0.798-0.461,1.474-0.461
					c0.567,0,1.005,0.137,1.312,0.408c0.309,0.271,0.461,0.682,0.461,1.225v0.143v3.727v0.143c0,0.082,0.01,0.154,0.027,0.213
					s0.062,0.105,0.133,0.141c0.047,0.014,0.113,0.02,0.195,0.02h0.195v0.674L143.721,169.339z M141.698,166.126l-0.746,0.355
					c-0.201,0.096-0.346,0.242-0.434,0.443c-0.089,0.201-0.134,0.428-0.134,0.676c0,0.365,0.06,0.627,0.178,0.781
					c0.13,0.201,0.372,0.301,0.728,0.301c0.26,0,0.491-0.09,0.692-0.266c0.284-0.225,0.426-0.58,0.426-1.064v-1.58
					C142.243,165.878,142.005,165.997,141.698,166.126z"/>
				<path fill="#F8D45F" d="M145.106,160.501h0.923v8.785h-0.923V160.501z"/>
				<path fill="#F8D45F" d="M153.501,162.772h0.959l-1.615,6.514h-0.977l-1.1-5.732l-1.049,5.732h-0.957l-1.668-6.514h0.957
					l1.172,5.732h0.035l1.029-5.732h0.959l1.1,5.732L153.501,162.772z"/>
				<path fill="#F8D45F" d="M159.341,169.339c-0.438,0-0.717-0.041-0.834-0.123c-0.166-0.107-0.279-0.373-0.338-0.799
					c-0.131,0.295-0.33,0.545-0.604,0.744c-0.271,0.201-0.557,0.303-0.852,0.303c-0.615,0-1.059-0.172-1.332-0.516
					c-0.236-0.307-0.354-0.773-0.354-1.402c0-0.365,0.082-0.686,0.248-0.957c0.166-0.273,0.396-0.48,0.691-0.623
					c0.047-0.023,0.164-0.072,0.348-0.15c0.182-0.076,0.445-0.18,0.789-0.309c0.248-0.096,0.439-0.174,0.576-0.232
					s0.217-0.1,0.24-0.123c0.07-0.049,0.117-0.115,0.143-0.205c0.023-0.088,0.035-0.191,0.035-0.311v-0.23
					c0-0.379-0.078-0.645-0.23-0.799c-0.154-0.154-0.422-0.23-0.799-0.23c-0.402,0-0.662,0.094-0.781,0.283
					c-0.107,0.166-0.16,0.457-0.16,0.869h-0.834c0-0.674,0.152-1.164,0.461-1.473c0.309-0.307,0.799-0.461,1.475-0.461
					c0.568,0,1.004,0.137,1.312,0.408s0.461,0.682,0.461,1.225v0.143v3.727v0.143c0,0.082,0.01,0.154,0.027,0.213
					s0.062,0.105,0.133,0.141c0.047,0.014,0.113,0.02,0.195,0.02h0.195v0.674L159.341,169.339z M157.317,166.126l-0.746,0.355
					c-0.201,0.096-0.346,0.242-0.434,0.443c-0.09,0.201-0.135,0.428-0.135,0.676c0,0.365,0.061,0.627,0.178,0.781
					c0.131,0.201,0.373,0.301,0.729,0.301c0.26,0,0.49-0.09,0.691-0.266c0.285-0.225,0.426-0.58,0.426-1.064v-1.58
					C157.862,165.878,157.624,165.997,157.317,166.126z"/>
				<path fill="#F8D45F" d="M160.884,162.772l1.475,5.645l1.525-5.645h0.959l-1.916,6.23c-0.061,0.166-0.111,0.318-0.152,0.461
					c-0.041,0.141-0.086,0.266-0.133,0.373c-0.119,0.402-0.225,0.674-0.318,0.816c-0.332,0.566-0.83,0.852-1.492,0.852
					c-0.225,0-0.449-0.035-0.674-0.107v-0.814c0.094,0.047,0.207,0.082,0.338,0.105c0.129,0.023,0.248,0.035,0.354,0.035
					c0.438,0,0.74-0.195,0.906-0.586c0.059-0.154,0.109-0.287,0.15-0.398c0.041-0.113,0.074-0.211,0.098-0.293l-2.076-6.674H160.884
					z"/>
				<path fill="#F8D45F" d="M168.411,163.659c-0.154-0.189-0.428-0.283-0.816-0.283c-0.688,0-1.029,0.332-1.029,0.994
					c0,0.414,0.205,0.721,0.621,0.922c0.152,0.061,0.285,0.115,0.398,0.17c0.111,0.053,0.211,0.092,0.293,0.115
					c0.711,0.307,1.143,0.52,1.295,0.639c0.391,0.307,0.586,0.723,0.586,1.242c0,0.615-0.197,1.104-0.594,1.465
					s-0.932,0.541-1.607,0.541c-0.33,0-0.627-0.053-0.887-0.16c-0.318-0.117-0.562-0.289-0.729-0.514
					c-0.164-0.225-0.277-0.469-0.336-0.729c-0.012-0.082-0.021-0.178-0.027-0.283c-0.006-0.107-0.008-0.238-0.008-0.391h0.887
					c0,0.438,0.076,0.75,0.23,0.939c0.166,0.238,0.455,0.355,0.869,0.355c0.402,0,0.705-0.082,0.906-0.248
					c0.225-0.178,0.338-0.463,0.338-0.854c0-0.449-0.268-0.779-0.799-0.992c-0.297-0.119-0.568-0.219-0.816-0.303
					c-0.568-0.213-0.959-0.426-1.172-0.639c-0.273-0.271-0.408-0.674-0.408-1.207c0-0.568,0.174-1.018,0.523-1.35
					c0.348-0.33,0.807-0.496,1.375-0.496c0.676,0,1.182,0.15,1.518,0.453c0.338,0.301,0.506,0.789,0.506,1.463h-0.904
					C168.624,164.12,168.552,163.837,168.411,163.659z"/>
				<path fill="#F8D45F" d="M176.327,169.286v-8.785h0.922v2.98c0.131-0.152,0.252-0.287,0.365-0.398
					c0.111-0.113,0.227-0.199,0.346-0.258c0.26-0.152,0.568-0.23,0.922-0.23c0.51,0,0.902,0.137,1.182,0.408
					c0.277,0.271,0.416,0.691,0.416,1.26v5.023h-0.922v-4.775c0-0.354-0.066-0.625-0.195-0.816c-0.166-0.213-0.42-0.318-0.764-0.318
					c-0.355,0-0.662,0.125-0.924,0.373c-0.164,0.152-0.277,0.322-0.336,0.504c-0.061,0.186-0.09,0.406-0.09,0.666v4.367H176.327z"/>
				<path fill="#F8D45F" d="M185.999,169.339c-0.438,0-0.715-0.041-0.834-0.123c-0.166-0.107-0.277-0.373-0.336-0.799
					c-0.131,0.295-0.332,0.545-0.604,0.744c-0.273,0.201-0.557,0.303-0.854,0.303c-0.615,0-1.059-0.172-1.33-0.516
					c-0.236-0.307-0.355-0.773-0.355-1.402c0-0.365,0.084-0.686,0.248-0.957c0.166-0.273,0.396-0.48,0.693-0.623
					c0.047-0.023,0.162-0.072,0.346-0.15c0.184-0.076,0.447-0.18,0.789-0.309c0.248-0.096,0.441-0.174,0.578-0.232
					c0.135-0.059,0.215-0.1,0.238-0.123c0.072-0.049,0.119-0.115,0.143-0.205c0.023-0.088,0.035-0.191,0.035-0.311v-0.23
					c0-0.379-0.076-0.645-0.23-0.799s-0.42-0.23-0.799-0.23c-0.402,0-0.662,0.094-0.781,0.283c-0.105,0.166-0.158,0.457-0.158,0.869
					h-0.834c0-0.674,0.152-1.164,0.459-1.473c0.309-0.307,0.801-0.461,1.475-0.461c0.568,0,1.006,0.137,1.312,0.408
					c0.309,0.271,0.463,0.682,0.463,1.225v0.143v3.727v0.143c0,0.082,0.008,0.154,0.025,0.213c0.02,0.059,0.062,0.105,0.135,0.141
					c0.047,0.014,0.111,0.02,0.193,0.02h0.195v0.674L185.999,169.339z M183.976,166.126l-0.744,0.355
					c-0.201,0.096-0.348,0.242-0.436,0.443c-0.09,0.201-0.133,0.428-0.133,0.676c0,0.365,0.059,0.627,0.178,0.781
					c0.131,0.201,0.373,0.301,0.727,0.301c0.262,0,0.492-0.09,0.693-0.266c0.283-0.225,0.426-0.58,0.426-1.064v-1.58
					C184.521,165.878,184.284,165.997,183.976,166.126z"/>
				<path fill="#F8D45F" d="M187.649,162.772l1.475,5.732l1.49-5.732h0.959l-1.953,6.514h-1.012l-1.916-6.514H187.649z"/>
				<path fill="#F8D45F" d="M195.851,168.771c-0.355,0.463-0.857,0.693-1.508,0.693c-0.664,0-1.166-0.242-1.51-0.729
					c-0.402-0.555-0.604-1.461-0.604-2.715c0-0.875,0.137-1.615,0.408-2.219c0.355-0.805,0.918-1.207,1.686-1.207
					c0.641,0,1.131,0.189,1.475,0.568c0.248,0.283,0.42,0.732,0.514,1.348c0.035,0.309,0.055,0.842,0.055,1.598h-3.178v0.426
					c0,0.818,0.098,1.379,0.293,1.688c0.195,0.307,0.488,0.461,0.879,0.461c0.365,0,0.65-0.143,0.852-0.426
					c0.166-0.236,0.248-0.539,0.248-0.904v-0.143c-0.012-0.037-0.018-0.064-0.018-0.09h0.869
					C196.312,167.808,196.159,168.358,195.851,168.771z M195.265,164.085c-0.154-0.473-0.461-0.709-0.922-0.709
					c-0.475,0-0.799,0.23-0.977,0.691c-0.119,0.285-0.178,0.711-0.178,1.279h2.219C195.407,164.79,195.358,164.37,195.265,164.085z"
					/>
				<path fill="#F8D45F" d="M205.151,162.772v0.781h-1.082v4.438v0.176c0,0.107,0.025,0.191,0.078,0.25
					c0.055,0.059,0.17,0.088,0.348,0.088h0.621v0.781h-1.012c-0.32,0-0.551-0.053-0.693-0.16c-0.176-0.154-0.266-0.455-0.266-0.904
					v-4.668h-0.906v-0.781h0.906v-1.775h0.906v1.775H205.151z"/>
				<path fill="#F8D45F" d="M206.233,160.501h0.924v1.17h-0.924V160.501z M206.233,162.772h0.924v6.514h-0.924V162.772z"/>
				<path fill="#F8D45F" d="M208.878,169.286v-6.514h0.887v0.834c0.178-0.297,0.398-0.533,0.658-0.711
					c0.307-0.199,0.615-0.301,0.922-0.301c0.344,0,0.648,0.092,0.914,0.275c0.268,0.184,0.477,0.436,0.631,0.754
					c0.236-0.332,0.479-0.586,0.729-0.764c0.283-0.178,0.621-0.266,1.012-0.266c0.438,0,0.84,0.154,1.205,0.461
					c0.191,0.166,0.309,0.414,0.355,0.746c0.012,0.094,0.021,0.207,0.027,0.338s0.008,0.277,0.008,0.443v4.703h-0.922v-4.775
					c0-0.391-0.064-0.668-0.195-0.834c-0.166-0.201-0.432-0.301-0.799-0.301c-0.332,0-0.621,0.125-0.869,0.373
					c-0.166,0.152-0.279,0.322-0.338,0.504c-0.059,0.186-0.088,0.406-0.088,0.666v4.367h-0.924v-4.775
					c0-0.365-0.07-0.639-0.213-0.816c-0.166-0.213-0.42-0.318-0.764-0.318c-0.342,0-0.645,0.125-0.904,0.373
					c-0.166,0.152-0.275,0.318-0.328,0.496c-0.055,0.178-0.08,0.402-0.08,0.674v4.367H208.878z"/>
				<path fill="#F8D45F" d="M221.214,168.771c-0.355,0.463-0.859,0.693-1.51,0.693c-0.662,0-1.164-0.242-1.508-0.729
					c-0.402-0.555-0.604-1.461-0.604-2.715c0-0.875,0.137-1.615,0.408-2.219c0.355-0.805,0.916-1.207,1.686-1.207
					c0.639,0,1.131,0.189,1.473,0.568c0.25,0.283,0.422,0.732,0.516,1.348c0.035,0.309,0.053,0.842,0.053,1.598h-3.176v0.426
					c0,0.818,0.098,1.379,0.293,1.688c0.195,0.307,0.488,0.461,0.877,0.461c0.367,0,0.652-0.143,0.854-0.426
					c0.166-0.236,0.248-0.539,0.248-0.904v-0.143c-0.012-0.037-0.018-0.064-0.018-0.09h0.869
					C221.675,167.808,221.521,168.358,221.214,168.771z M220.628,164.085c-0.154-0.473-0.461-0.709-0.924-0.709
					c-0.473,0-0.797,0.23-0.975,0.691c-0.119,0.285-0.178,0.711-0.178,1.279h2.219C220.771,164.79,220.722,164.37,220.628,164.085z"
					/>
				<path fill="#F8D45F" d="M227.638,163.554v-0.781h0.941v-0.551c0-0.295,0.012-0.543,0.037-0.744
					c0.023-0.203,0.088-0.373,0.193-0.516c0.225-0.332,0.641-0.498,1.244-0.498c0.07,0,0.145,0.004,0.221,0.01
					s0.162,0.016,0.258,0.027v0.781c-0.047,0-0.104-0.004-0.168-0.01c-0.066-0.006-0.129-0.01-0.188-0.01
					c-0.236,0-0.406,0.057-0.506,0.17c-0.102,0.111-0.15,0.328-0.15,0.646v0.693h1.012v0.781h-1.012v5.732h-0.941v-5.732H227.638z"
					/>
				<path fill="#F8D45F" d="M231.987,168.683c-0.426-0.58-0.639-1.537-0.639-2.875c0-1.029,0.191-1.822,0.576-2.379
					s0.967-0.834,1.748-0.834s1.367,0.289,1.758,0.869c0.379,0.557,0.568,1.338,0.568,2.344c0,1.324-0.207,2.283-0.621,2.875
					c-0.379,0.521-0.947,0.781-1.705,0.781C232.929,169.464,232.366,169.204,231.987,168.683z M232.636,164.005
					c-0.219,0.422-0.33,1.117-0.33,2.086c0,0.863,0.096,1.49,0.285,1.881c0.213,0.475,0.574,0.711,1.082,0.711
					c0.51,0,0.871-0.236,1.084-0.711c0.189-0.391,0.283-1.018,0.283-1.881c0-0.982-0.104-1.68-0.311-2.094s-0.559-0.621-1.057-0.621
					C233.2,163.376,232.854,163.585,232.636,164.005z"/>
				<path fill="#F8D45F" d="M239.132,162.968c0.266-0.189,0.594-0.285,0.984-0.285c0.143,0,0.23,0.008,0.266,0.018v0.924
					c-0.117-0.023-0.248-0.035-0.391-0.035c-0.473,0-0.842,0.156-1.107,0.471c-0.268,0.312-0.4,0.742-0.4,1.287v3.939h-0.941v-6.514
					h0.906v1.064C238.638,163.446,238.866,163.157,239.132,162.968z"/>
				<path fill="#F8D45F" d="M246.718,162.772l1.475,5.645l1.525-5.645h0.959l-1.918,6.23c-0.059,0.166-0.109,0.318-0.15,0.461
					c-0.041,0.141-0.086,0.266-0.133,0.373c-0.119,0.402-0.225,0.674-0.318,0.816c-0.332,0.566-0.83,0.852-1.492,0.852
					c-0.225,0-0.449-0.035-0.674-0.107v-0.814c0.094,0.047,0.207,0.082,0.338,0.105c0.129,0.023,0.248,0.035,0.354,0.035
					c0.438,0,0.74-0.195,0.906-0.586c0.059-0.154,0.109-0.287,0.15-0.398c0.041-0.113,0.074-0.211,0.098-0.293l-2.076-6.674H246.718
					z"/>
				<path fill="#F8D45F" d="M252.149,168.683c-0.426-0.58-0.639-1.537-0.639-2.875c0-1.029,0.191-1.822,0.576-2.379
					s0.969-0.834,1.75-0.834s1.365,0.289,1.756,0.869c0.379,0.557,0.568,1.338,0.568,2.344c0,1.324-0.207,2.283-0.621,2.875
					c-0.379,0.521-0.947,0.781-1.703,0.781C253.091,169.464,252.528,169.204,252.149,168.683z M252.798,164.005
					c-0.219,0.422-0.328,1.117-0.328,2.086c0,0.863,0.094,1.49,0.285,1.881c0.211,0.475,0.572,0.711,1.082,0.711
					c0.508,0,0.869-0.236,1.082-0.711c0.189-0.391,0.283-1.018,0.283-1.881c0-0.982-0.104-1.68-0.311-2.094
					s-0.559-0.621-1.055-0.621C253.362,163.376,253.017,163.585,252.798,164.005z"/>
				<path fill="#F8D45F" d="M260.776,168.435c-0.143,0.318-0.355,0.57-0.639,0.754c-0.285,0.184-0.588,0.275-0.906,0.275
					c-0.496,0-0.881-0.137-1.154-0.408c-0.271-0.271-0.408-0.693-0.408-1.26v-5.023h0.924v5.059c0,0.295,0.059,0.512,0.178,0.646
					c0.117,0.137,0.336,0.205,0.656,0.205c0.473,0,0.846-0.195,1.119-0.586c0.094-0.154,0.162-0.328,0.203-0.523
					s0.062-0.4,0.062-0.611v-4.189h0.922v6.514h-0.922v-0.852H260.776z"/>
			</g>
		</g>
	</g>
	<g>
		<g>
			<g>
				<path fill="#F8D45F" d="M81.082,490.226h0.766c0.093,1.439,0.326,2.182,0.951,2.924c0.744,0.859,1.951,1.323,3.481,1.323
					c2.111,0,3.365-1.113,3.365-3.017c0-1.834-0.858-2.715-4.315-4.387c-1.974-0.951-2.692-1.392-3.342-2.088
					c-0.674-0.72-1.022-1.625-1.022-2.738c0-1.37,0.512-2.531,1.464-3.366c0.88-0.765,1.925-1.113,3.317-1.113
					c0.882,0,1.276,0.046,2.739,0.395c0.347,0.07,0.625,0.116,0.857,0.116c0.348,0,0.767-0.116,1.393-0.349l-0.139,4.572h-0.766
					c-0.093-1.137-0.279-1.811-0.65-2.437c-0.65-1.068-1.833-1.648-3.341-1.648c-1.115,0-1.903,0.325-2.461,0.975
					c-0.417,0.534-0.673,1.253-0.673,2.02c0,1.532,0.742,2.298,3.504,3.597c2.9,1.369,3.991,2.134,4.642,3.157
					c0.465,0.718,0.649,1.484,0.649,2.552c0,1.369-0.44,2.414-1.322,3.156c-0.975,0.858-2.251,1.276-3.783,1.276
					c-0.904,0-1.484-0.069-3.109-0.394c-0.278-0.046-0.533-0.07-0.766-0.07c-0.371,0-0.789,0.07-1.602,0.232L81.082,490.226z"/>
				<path fill="#F8D45F" d="M100.923,491.92c0,2.136,0.14,2.32,1.811,2.367v0.581H97.07v-0.581c1.647-0.046,1.788-0.208,1.788-2.367
					v-10.93c0-2.158-0.116-2.298-1.788-2.391v-0.557h5.663v0.557c-1.694,0.093-1.811,0.233-1.811,2.391v5.986l5.522-5.802
					c0.721-0.742,1.091-1.368,1.091-1.787c0-0.511-0.394-0.742-1.415-0.789v-0.557h5.501v0.557c-1.3,0.093-2.367,0.743-3.923,2.413
					l-3.55,3.783l5.291,7.612c0.974,1.37,1.577,1.811,2.807,1.949v0.511h-3.828c-0.649-1.137-1.091-1.857-1.671-2.715l-4.015-5.988
					l-1.811,1.857V491.92z"/>
				<path fill="#F8D45F" d="M123.246,494.96h-1.484l-3.412-13.901c-0.255-1.067-0.533-1.717-0.904-2.042
					c-0.256-0.232-0.58-0.325-1.37-0.395v-0.58h5.988v0.58c-0.743,0.024-1.067,0.07-1.301,0.21
					c-0.348,0.161-0.533,0.486-0.533,0.904c0,0.348,0.047,0.626,0.325,1.717l2.6,10.93l4.106-14.155h1.486l3.805,13.993
					l2.692-10.142c0.21-0.765,0.349-1.601,0.349-2.088c0-0.626-0.302-1.044-0.835-1.229c-0.303-0.093-0.65-0.14-1.138-0.14v-0.58
					h5.291v0.58c-1.486,0.14-1.972,0.743-2.691,3.343l-3.598,12.995h-1.323l-3.852-14.226L123.246,494.96z"/>
				<path fill="#F8D45F" d="M144.387,491.131c-0.278,0.743-0.441,1.462-0.441,1.903c0,0.834,0.604,1.206,1.949,1.252v0.581h-5.431
					v-0.581c1.324,0,2.09-0.812,2.971-3.155l4.943-13.089l1.439-0.163l4.92,14.016c0.649,1.903,1.091,2.344,2.437,2.391v0.581
					h-5.987v-0.581c1.184-0.046,1.672-0.325,1.672-0.997c0-0.279-0.095-0.744-0.279-1.324l-0.975-2.924h-6.476L144.387,491.131z
					 M148.47,480.062l-3.016,8.122h5.848L148.47,480.062z"/>
				<path fill="#F8D45F" d="M168.173,491.92c0,1.37,0.092,1.811,0.418,2.065c0.23,0.209,0.835,0.301,1.764,0.301v0.581h-6.499
					v-0.581c0.999,0,1.556-0.116,1.788-0.348c0.301-0.255,0.371-0.72,0.371-2.019v-13.321c-4.154,0.047-4.827,0.58-5.407,4.362
					l-0.743-0.046l0.418-4.873h13.646l0.416,4.873l-0.741,0.046c-0.604-3.782-1.254-4.315-5.431-4.362V491.92z"/>
				<path fill="#F8D45F" d="M192.399,483.356c-0.209-1.438-0.534-2.298-1.161-3.132c-0.95-1.184-2.366-1.881-3.875-1.881
					c-1.671,0-3.226,0.858-4.062,2.251c-0.882,1.416-1.346,3.388-1.346,5.64c0,4.85,2.32,8.03,5.825,8.03
					c2.576,0,4.664-1.578,5.569-4.201l0.674,0.302c-0.512,1.346-1.092,2.274-1.904,3.063c-1.183,1.137-2.947,1.764-4.99,1.764
					c-2.087,0-3.967-0.812-5.336-2.275c-1.439-1.555-2.182-3.666-2.182-6.242c0-3.249,1.184-6.011,3.271-7.542
					c1.184-0.905,2.831-1.416,4.387-1.416c0.905,0,1.926,0.186,2.947,0.511c1.09,0.347,1.322,0.394,1.717,0.394
					c0.326,0,0.441-0.046,1.207-0.325v5.06H192.399z"/>
				<path fill="#F8D45F" d="M202.91,491.92c0,2.136,0.139,2.32,1.812,2.367v0.581h-5.709v-0.581
					c1.646-0.046,1.787-0.208,1.787-2.367v-10.93c0-2.158-0.117-2.298-1.787-2.368v-0.58h5.709v0.58
					c-1.695,0.07-1.812,0.21-1.812,2.368v4.618h8.772v-4.618c0-2.158-0.116-2.298-1.811-2.368v-0.58h5.709v0.58
					c-1.671,0.07-1.787,0.21-1.787,2.368v10.93c0,2.136,0.141,2.32,1.787,2.367v0.581h-5.709v-0.581
					c1.672-0.046,1.811-0.231,1.811-2.367v-5.569h-8.772V491.92z"/>
			</g>
			<g>
				<path fill="#F8D45F" d="M103.876,511.762c-0.362,0-0.592-0.034-0.69-0.102c-0.138-0.089-0.23-0.31-0.279-0.662
					c-0.109,0.244-0.274,0.451-0.5,0.617c-0.226,0.167-0.46,0.25-0.705,0.25c-0.511,0-0.878-0.142-1.104-0.427
					c-0.195-0.254-0.294-0.642-0.294-1.161c0-0.304,0.069-0.568,0.206-0.793c0.138-0.226,0.328-0.397,0.573-0.515
					c0.039-0.02,0.135-0.062,0.287-0.125c0.151-0.063,0.369-0.148,0.654-0.257c0.205-0.077,0.364-0.141,0.477-0.191
					c0.113-0.048,0.179-0.083,0.199-0.102c0.06-0.039,0.097-0.096,0.117-0.17c0.021-0.073,0.03-0.159,0.03-0.257v-0.19
					c0-0.313-0.064-0.534-0.191-0.662c-0.127-0.127-0.349-0.191-0.662-0.191c-0.333,0-0.548,0.078-0.646,0.235
					c-0.088,0.137-0.132,0.378-0.132,0.721h-0.691c0-0.559,0.127-0.965,0.383-1.22c0.254-0.255,0.66-0.382,1.219-0.382
					c0.471,0,0.834,0.113,1.089,0.338c0.255,0.226,0.382,0.563,0.382,1.014v0.117v3.086v0.119c0,0.069,0.007,0.127,0.022,0.176
					c0.014,0.05,0.051,0.088,0.11,0.119c0.039,0.009,0.093,0.014,0.161,0.014h0.161v0.559L103.876,511.762z M102.199,509.103
					l-0.615,0.292c-0.168,0.08-0.287,0.202-0.361,0.368c-0.073,0.167-0.11,0.353-0.11,0.559c0,0.305,0.049,0.52,0.147,0.647
					c0.107,0.167,0.308,0.25,0.603,0.25c0.216,0,0.406-0.073,0.573-0.221c0.234-0.186,0.353-0.48,0.353-0.882v-1.309
					C102.651,508.896,102.454,508.994,102.199,509.103z"/>
				<path fill="#F8D45F" d="M105.022,504.442h0.765v7.275h-0.765V504.442z"/>
				<path fill="#F8D45F" d="M111.976,506.324h0.793l-1.338,5.394h-0.809l-0.911-4.748l-0.866,4.748h-0.795l-1.381-5.394h0.793
					l0.972,4.747h0.028l0.852-4.747h0.795l0.911,4.747L111.976,506.324z"/>
				<path fill="#F8D45F" d="M116.812,511.762c-0.362,0-0.595-0.034-0.691-0.102c-0.138-0.089-0.229-0.31-0.279-0.662
					c-0.108,0.244-0.274,0.451-0.5,0.617c-0.225,0.167-0.46,0.25-0.705,0.25c-0.51,0-0.878-0.142-1.103-0.427
					c-0.196-0.254-0.294-0.642-0.294-1.161c0-0.304,0.068-0.568,0.206-0.793c0.137-0.226,0.329-0.397,0.573-0.515
					c0.038-0.02,0.135-0.062,0.286-0.125c0.152-0.063,0.37-0.148,0.655-0.257c0.205-0.077,0.363-0.141,0.476-0.191
					c0.113-0.048,0.18-0.083,0.2-0.102c0.059-0.039,0.097-0.096,0.117-0.17c0.019-0.073,0.029-0.159,0.029-0.257v-0.19
					c0-0.313-0.063-0.534-0.19-0.662c-0.128-0.127-0.35-0.191-0.662-0.191c-0.333,0-0.549,0.078-0.647,0.235
					c-0.088,0.137-0.132,0.378-0.132,0.721h-0.69c0-0.559,0.126-0.965,0.382-1.22c0.254-0.255,0.661-0.382,1.22-0.382
					c0.471,0,0.833,0.113,1.089,0.338c0.255,0.226,0.382,0.563,0.382,1.014v0.117v3.086v0.119c0,0.069,0.007,0.127,0.022,0.176
					c0.014,0.05,0.051,0.088,0.109,0.119c0.04,0.009,0.093,0.014,0.161,0.014h0.161v0.559L116.812,511.762z M115.135,509.103
					l-0.616,0.292c-0.167,0.08-0.287,0.202-0.36,0.368c-0.073,0.167-0.11,0.353-0.11,0.559c0,0.305,0.048,0.52,0.146,0.647
					c0.108,0.167,0.309,0.25,0.603,0.25c0.216,0,0.407-0.073,0.573-0.221c0.235-0.186,0.353-0.48,0.353-0.882v-1.309
					C115.587,508.896,115.391,508.994,115.135,509.103z"/>
				<path fill="#F8D45F" d="M118.09,506.324l1.22,4.674l1.264-4.674h0.795l-1.588,5.159c-0.05,0.137-0.091,0.264-0.125,0.381
					c-0.035,0.117-0.071,0.221-0.111,0.31c-0.097,0.332-0.186,0.557-0.264,0.676c-0.273,0.47-0.686,0.706-1.234,0.706
					c-0.186,0-0.372-0.029-0.559-0.089v-0.676c0.078,0.039,0.172,0.068,0.278,0.088c0.107,0.02,0.206,0.029,0.294,0.029
					c0.363,0,0.613-0.161,0.75-0.485c0.05-0.128,0.091-0.237,0.125-0.331c0.035-0.093,0.062-0.175,0.081-0.243l-1.72-5.525H118.09z"
					/>
				<path fill="#F8D45F" d="M124.322,507.058c-0.127-0.157-0.353-0.235-0.677-0.235c-0.567,0-0.852,0.274-0.852,0.823
					c0,0.344,0.171,0.599,0.515,0.765c0.127,0.048,0.236,0.095,0.331,0.14c0.092,0.043,0.173,0.076,0.241,0.095
					c0.588,0.255,0.946,0.432,1.073,0.53c0.324,0.253,0.484,0.597,0.484,1.028c0,0.51-0.163,0.915-0.492,1.213
					c-0.328,0.299-0.771,0.448-1.33,0.448c-0.274,0-0.52-0.044-0.735-0.131c-0.265-0.099-0.465-0.241-0.602-0.427
					c-0.138-0.187-0.23-0.387-0.279-0.603c-0.009-0.069-0.018-0.147-0.022-0.236c-0.005-0.087-0.007-0.195-0.007-0.322h0.735
					c0,0.362,0.062,0.623,0.19,0.779c0.136,0.195,0.377,0.294,0.72,0.294c0.334,0,0.583-0.069,0.75-0.206
					c0.186-0.147,0.279-0.382,0.279-0.706c0-0.372-0.221-0.646-0.662-0.823c-0.244-0.098-0.47-0.182-0.675-0.25
					c-0.471-0.177-0.795-0.352-0.971-0.529c-0.226-0.226-0.338-0.559-0.338-1c0-0.471,0.144-0.843,0.433-1.117
					c0.289-0.275,0.669-0.412,1.14-0.412c0.559,0,0.978,0.125,1.257,0.375c0.278,0.249,0.419,0.653,0.419,1.212h-0.75
					C124.498,507.441,124.439,507.205,124.322,507.058z"/>
				<path fill="#F8D45F" d="M130.878,511.718v-7.275h0.765v2.468c0.108-0.126,0.208-0.237,0.302-0.331
					c0.093-0.093,0.188-0.164,0.286-0.212c0.217-0.128,0.47-0.191,0.765-0.191c0.421,0,0.747,0.113,0.978,0.338
					c0.23,0.226,0.345,0.573,0.345,1.043v4.16h-0.764v-3.954c0-0.294-0.055-0.52-0.162-0.676c-0.138-0.177-0.348-0.264-0.633-0.264
					c-0.293,0-0.548,0.103-0.764,0.308c-0.137,0.128-0.23,0.268-0.279,0.419c-0.049,0.152-0.073,0.336-0.073,0.551v3.616H130.878z"
					/>
				<path fill="#F8D45F" d="M138.889,511.762c-0.363,0-0.593-0.034-0.69-0.102c-0.138-0.089-0.23-0.31-0.28-0.662
					c-0.107,0.244-0.273,0.451-0.499,0.617c-0.227,0.167-0.461,0.25-0.705,0.25c-0.51,0-0.877-0.142-1.103-0.427
					c-0.197-0.254-0.295-0.642-0.295-1.161c0-0.304,0.069-0.568,0.206-0.793c0.137-0.226,0.328-0.397,0.574-0.515
					c0.039-0.02,0.134-0.062,0.286-0.125c0.152-0.063,0.369-0.148,0.654-0.257c0.205-0.077,0.365-0.141,0.477-0.191
					c0.113-0.048,0.18-0.083,0.199-0.102c0.059-0.039,0.098-0.096,0.117-0.17c0.02-0.073,0.029-0.159,0.029-0.257v-0.19
					c0-0.313-0.062-0.534-0.19-0.662c-0.128-0.127-0.348-0.191-0.661-0.191c-0.333,0-0.55,0.078-0.647,0.235
					c-0.089,0.137-0.132,0.378-0.132,0.721h-0.69c0-0.559,0.127-0.965,0.381-1.22c0.255-0.255,0.662-0.382,1.221-0.382
					c0.471,0,0.832,0.113,1.087,0.338c0.256,0.226,0.384,0.563,0.384,1.014v0.117v3.086v0.119c0,0.069,0.007,0.127,0.021,0.176
					c0.015,0.05,0.052,0.088,0.109,0.119c0.04,0.009,0.095,0.014,0.161,0.014h0.163v0.559L138.889,511.762z M137.213,509.103
					l-0.617,0.292c-0.167,0.08-0.286,0.202-0.36,0.368c-0.074,0.167-0.109,0.353-0.109,0.559c0,0.305,0.048,0.52,0.146,0.647
					c0.107,0.167,0.31,0.25,0.604,0.25c0.216,0,0.407-0.073,0.572-0.221c0.236-0.186,0.354-0.48,0.354-0.882v-1.309
					C137.663,508.896,137.468,508.994,137.213,509.103z"/>
				<path fill="#F8D45F" d="M140.256,506.324l1.22,4.747l1.235-4.747h0.793l-1.616,5.394h-0.837l-1.589-5.394H140.256z"/>
				<path fill="#F8D45F" d="M147.047,511.292c-0.293,0.382-0.711,0.573-1.249,0.573c-0.55,0-0.966-0.2-1.25-0.602
					c-0.333-0.46-0.5-1.211-0.5-2.25c0-0.726,0.112-1.337,0.339-1.837c0.294-0.666,0.759-1,1.396-1c0.529,0,0.936,0.157,1.219,0.47
					c0.207,0.236,0.35,0.608,0.427,1.117c0.03,0.255,0.044,0.696,0.044,1.323h-2.631v0.354c0,0.676,0.081,1.141,0.244,1.396
					c0.16,0.255,0.402,0.383,0.727,0.383c0.303,0,0.539-0.119,0.705-0.354c0.138-0.195,0.206-0.446,0.206-0.75v-0.117
					c-0.01-0.03-0.014-0.053-0.014-0.073h0.719C147.429,510.493,147.301,510.949,147.047,511.292z M146.562,507.411
					c-0.129-0.392-0.384-0.588-0.765-0.588c-0.393,0-0.661,0.191-0.809,0.572c-0.099,0.236-0.147,0.589-0.147,1.06h1.838
					C146.68,507.995,146.641,507.646,146.562,507.411z"/>
				<path fill="#F8D45F" d="M154.749,506.324v0.646h-0.896v3.674v0.147c0,0.087,0.023,0.157,0.066,0.206
					c0.044,0.049,0.14,0.073,0.287,0.073h0.514v0.646h-0.838c-0.264,0-0.455-0.044-0.572-0.132c-0.147-0.128-0.221-0.376-0.221-0.75
					v-3.866h-0.751v-0.646h0.751v-1.47h0.75v1.47H154.749z"/>
				<path fill="#F8D45F" d="M155.646,504.442h0.763v0.97h-0.763V504.442z M155.646,506.324h0.763v5.394h-0.763V506.324z"/>
				<path fill="#F8D45F" d="M157.836,511.718v-5.394h0.735v0.69c0.147-0.245,0.328-0.441,0.543-0.588
					c0.256-0.166,0.51-0.25,0.766-0.25c0.283,0,0.535,0.076,0.756,0.228c0.221,0.151,0.395,0.359,0.522,0.625
					c0.194-0.275,0.397-0.484,0.603-0.632c0.234-0.147,0.516-0.221,0.838-0.221c0.363,0,0.695,0.127,1,0.382
					c0.155,0.138,0.254,0.343,0.293,0.618c0.01,0.079,0.018,0.171,0.022,0.279c0.005,0.108,0.007,0.23,0.007,0.368v3.895h-0.763
					v-3.954c0-0.323-0.055-0.554-0.163-0.69c-0.137-0.167-0.357-0.25-0.661-0.25c-0.274,0-0.515,0.103-0.72,0.308
					c-0.138,0.128-0.23,0.268-0.279,0.419c-0.049,0.152-0.074,0.336-0.074,0.551v3.616h-0.766v-3.954
					c0-0.304-0.058-0.529-0.175-0.676c-0.137-0.177-0.349-0.264-0.632-0.264c-0.285,0-0.535,0.103-0.749,0.308
					c-0.138,0.128-0.229,0.264-0.272,0.412c-0.045,0.147-0.066,0.333-0.066,0.559v3.616H157.836z"/>
				<path fill="#F8D45F" d="M168.052,511.292c-0.293,0.382-0.711,0.573-1.248,0.573c-0.551,0-0.967-0.2-1.251-0.602
					c-0.333-0.46-0.5-1.211-0.5-2.25c0-0.726,0.112-1.337,0.339-1.837c0.295-0.666,0.76-1,1.396-1c0.529,0,0.936,0.157,1.219,0.47
					c0.207,0.236,0.35,0.608,0.428,1.117c0.028,0.255,0.043,0.696,0.043,1.323h-2.631v0.354c0,0.676,0.081,1.141,0.242,1.396
					c0.163,0.255,0.404,0.383,0.729,0.383c0.303,0,0.537-0.119,0.705-0.354c0.138-0.195,0.207-0.446,0.207-0.75v-0.117
					c-0.012-0.03-0.016-0.053-0.016-0.073h0.721C168.435,510.493,168.307,510.949,168.052,511.292z M167.566,507.411
					c-0.127-0.392-0.382-0.588-0.763-0.588c-0.394,0-0.662,0.191-0.81,0.572c-0.099,0.236-0.147,0.589-0.147,1.06h1.839
					C167.686,507.995,167.646,507.646,167.566,507.411z"/>
				<path fill="#F8D45F" d="M173.374,506.97v-0.646h0.777v-0.457c0-0.244,0.01-0.451,0.03-0.618c0.02-0.166,0.073-0.309,0.161-0.426
					c0.187-0.274,0.53-0.412,1.029-0.412c0.06,0,0.119,0.002,0.184,0.007c0.064,0.004,0.135,0.012,0.213,0.022v0.646
					c-0.038,0-0.086-0.002-0.139-0.007c-0.055-0.005-0.105-0.007-0.154-0.007c-0.196,0-0.336,0.046-0.419,0.14
					c-0.084,0.093-0.126,0.271-0.126,0.536v0.574h0.838v0.646h-0.838v4.748h-0.779v-4.748H173.374z"/>
				<path fill="#F8D45F" d="M176.975,511.219c-0.353-0.48-0.529-1.273-0.529-2.382c0-0.852,0.159-1.508,0.478-1.97
					c0.318-0.46,0.801-0.69,1.447-0.69c0.647,0,1.133,0.239,1.455,0.72c0.314,0.46,0.471,1.107,0.471,1.939
					c0,1.098-0.172,1.892-0.514,2.382c-0.314,0.431-0.785,0.646-1.412,0.646C177.753,511.865,177.288,511.649,176.975,511.219z
					 M177.511,507.345c-0.182,0.348-0.272,0.924-0.272,1.728c0,0.715,0.079,1.234,0.236,1.558c0.175,0.392,0.474,0.588,0.896,0.588
					s0.721-0.197,0.896-0.588c0.157-0.324,0.236-0.843,0.236-1.558c0-0.813-0.086-1.392-0.258-1.735
					c-0.172-0.342-0.463-0.514-0.875-0.514C177.979,506.823,177.692,506.998,177.511,507.345z"/>
				<path fill="#F8D45F" d="M182.891,506.485c0.222-0.157,0.492-0.235,0.815-0.235c0.117,0,0.191,0.005,0.22,0.014v0.765
					c-0.097-0.02-0.204-0.03-0.321-0.03c-0.394,0-0.699,0.131-0.92,0.389c-0.221,0.26-0.331,0.616-0.331,1.066v3.263h-0.778v-5.394
					h0.749v0.881C182.481,506.882,182.671,506.642,182.891,506.485z"/>
				<path fill="#F8D45F" d="M189.174,506.324l1.22,4.674l1.264-4.674h0.795l-1.588,5.159c-0.049,0.137-0.091,0.264-0.123,0.381
					c-0.037,0.117-0.073,0.221-0.112,0.31c-0.097,0.332-0.187,0.557-0.265,0.676c-0.273,0.47-0.686,0.706-1.234,0.706
					c-0.186,0-0.373-0.029-0.559-0.089v-0.676c0.078,0.039,0.172,0.068,0.279,0.088c0.107,0.02,0.205,0.029,0.293,0.029
					c0.363,0,0.613-0.161,0.75-0.485c0.05-0.128,0.092-0.237,0.126-0.331c0.034-0.093,0.062-0.175,0.08-0.243l-1.719-5.525H189.174z
					"/>
				<path fill="#F8D45F" d="M193.671,511.219c-0.352-0.48-0.528-1.273-0.528-2.382c0-0.852,0.159-1.508,0.478-1.97
					c0.32-0.46,0.801-0.69,1.448-0.69s1.132,0.239,1.455,0.72c0.313,0.46,0.471,1.107,0.471,1.939c0,1.098-0.172,1.892-0.515,2.382
					c-0.312,0.431-0.783,0.646-1.411,0.646C194.452,511.865,193.985,511.649,193.671,511.219z M194.208,507.345
					c-0.181,0.348-0.271,0.924-0.271,1.728c0,0.715,0.078,1.234,0.234,1.558c0.178,0.392,0.477,0.588,0.897,0.588
					c0.423,0,0.722-0.197,0.896-0.588c0.155-0.324,0.235-0.843,0.235-1.558c0-0.813-0.086-1.392-0.257-1.735
					c-0.172-0.342-0.464-0.514-0.875-0.514C194.675,506.823,194.39,506.998,194.208,507.345z"/>
				<path fill="#F8D45F" d="M200.815,511.013c-0.117,0.264-0.293,0.473-0.529,0.625c-0.234,0.151-0.484,0.228-0.748,0.228
					c-0.412,0-0.73-0.113-0.957-0.338c-0.225-0.225-0.338-0.574-0.338-1.043v-4.159h0.765v4.189c0,0.244,0.049,0.423,0.147,0.536
					c0.098,0.113,0.278,0.169,0.543,0.169c0.393,0,0.701-0.163,0.926-0.486c0.078-0.127,0.136-0.271,0.17-0.433
					c0.035-0.163,0.051-0.331,0.051-0.507v-3.468h0.766v5.394h-0.766v-0.705H200.815z"/>
			</g>
		</g>
		<g>
			<g>
				<path fill="#F8D45F" d="M149.839,430.043l12.068-3.153l-0.285-1.092l-12.086,3.158c0.105,0.167,0.188,0.354,0.24,0.553
					C149.823,429.687,149.843,429.866,149.839,430.043z"/>
				<path fill="#F8D45F" d="M142.722,437.534l0.968,0.581l3.711-6.172c-0.377-0.087-0.716-0.284-0.98-0.558L142.722,437.534z"/>
				<path fill="#F8D45F" d="M146.688,428.403l-10.635-10.339l-0.471,0.485l10.634,10.341
					C146.343,428.705,146.502,428.538,146.688,428.403z"/>
				<path fill="#F8D45F" d="M149.021,431.616l1.507,1.466l0.473-0.485l-1.509-1.465
					C149.364,431.316,149.206,431.481,149.021,431.616z"/>
				<path fill="#F8D45F" d="M149.491,431.131c0.217-0.318,0.342-0.695,0.348-1.088c0.004-0.177-0.016-0.356-0.062-0.535
					c-0.053-0.199-0.135-0.385-0.24-0.553c-0.355-0.568-0.983-0.933-1.681-0.933c-0.169,0-0.339,0.022-0.503,0.065
					c-0.247,0.064-0.47,0.174-0.664,0.315c-0.187,0.135-0.346,0.302-0.472,0.486c-0.313,0.458-0.437,1.045-0.285,1.624
					c0.088,0.336,0.261,0.634,0.488,0.873c0.265,0.274,0.604,0.471,0.98,0.558c0.146,0.035,0.298,0.055,0.453,0.055l0,0
					c0.17,0,0.338-0.022,0.503-0.065c0.247-0.064,0.47-0.174,0.664-0.316C149.206,431.481,149.364,431.316,149.491,431.131z
					 M148.071,430.841c-0.072,0.019-0.146,0.028-0.218,0.028c-0.391,0-0.731-0.264-0.83-0.643c-0.119-0.458,0.155-0.927,0.613-1.047
					c0.072-0.019,0.146-0.029,0.219-0.029c0.39,0,0.729,0.264,0.829,0.642C148.805,430.252,148.53,430.721,148.071,430.841z"/>
			</g>
			<path fill="#F8D45F" d="M123.198,388.039c4.776,4.776,2.233,15.326,2.233,15.326s-0.398-4.033-1.029-7.487
				c-0.057-0.313-0.13-0.625-0.217-0.931c-1.641-4.641-15.915,9.04-11.582,11.009c0.787,0.393,1.574,0.591,2.428,0.703
				c0.429,0.081,0.863,0.142,1.305,0.182c15.925,1.475,39.64-16.679,61.021,4.704c11.812,11.811,8.585,31.766-2.628,42.978
				c-9.773,9.774-28.592,14.576-43.957,2.035c-18.336-14.963-7.441-40.264-7.441-40.264s-5.16,27.544,18.455,35.816
				c12.605,4.414,23.649-4.471,26.729-11.029c8.819-18.798-5.65-32.002-16.958-33.589c-9.553-1.34-35.657,9.096-43.604,2.082
				c-8.212-7.244-5.561-16.327-1.401-20.484C111.428,384.209,119.772,384.613,123.198,388.039z"/>
		</g>
	</g>
	<g>
		<g>
			<g>
				<path fill="#F8D45F" d="M81.082,796.407h0.765c0.095,1.439,0.325,2.182,0.952,2.924c0.742,0.859,1.949,1.323,3.481,1.323
					c2.112,0,3.365-1.113,3.365-3.017c0-1.835-0.858-2.716-4.317-4.387c-1.972-0.951-2.691-1.392-3.342-2.089
					c-0.673-0.719-1.02-1.624-1.02-2.737c0-1.37,0.511-2.53,1.461-3.366c0.883-0.765,1.926-1.113,3.319-1.113
					c0.881,0,1.276,0.046,2.737,0.395c0.349,0.07,0.627,0.116,0.858,0.116c0.349,0,0.766-0.116,1.394-0.349l-0.14,4.572h-0.766
					c-0.093-1.137-0.279-1.811-0.649-2.437c-0.65-1.068-1.834-1.648-3.343-1.648c-1.113,0-1.902,0.325-2.46,0.975
					c-0.417,0.534-0.672,1.253-0.672,2.02c0,1.532,0.742,2.298,3.504,3.597c2.9,1.369,3.991,2.135,4.641,3.157
					c0.464,0.718,0.649,1.484,0.649,2.552c0,1.369-0.44,2.414-1.321,3.156c-0.975,0.858-2.251,1.275-3.783,1.275
					c-0.904,0-1.485-0.068-3.11-0.393c-0.278-0.047-0.533-0.07-0.766-0.07c-0.371,0-0.788,0.07-1.601,0.232L81.082,796.407z"/>
				<path fill="#F8D45F" d="M100.923,798.102c0,2.136,0.139,2.32,1.81,2.367v0.58h-5.661v-0.58c1.647-0.047,1.786-0.209,1.786-2.367
					v-10.93c0-2.158-0.116-2.299-1.786-2.391v-0.557h5.661v0.557c-1.693,0.092-1.81,0.232-1.81,2.391v5.986l5.523-5.802
					c0.719-0.742,1.091-1.368,1.091-1.787c0-0.511-0.395-0.741-1.416-0.788v-0.557h5.499v0.557c-1.3,0.092-2.366,0.742-3.921,2.412
					l-3.552,3.783l5.293,7.612c0.975,1.37,1.576,1.811,2.807,1.949v0.511h-3.828c-0.649-1.137-1.091-1.856-1.672-2.715l-4.015-5.988
					l-1.81,1.857V798.102z"/>
				<path fill="#F8D45F" d="M123.247,801.142h-1.486l-3.411-13.901c-0.255-1.067-0.534-1.717-0.904-2.042
					c-0.257-0.231-0.582-0.325-1.37-0.395v-0.579h5.986v0.579c-0.741,0.024-1.066,0.069-1.299,0.21
					c-0.348,0.161-0.533,0.486-0.533,0.904c0,0.348,0.047,0.627,0.324,1.717l2.599,10.93l4.107-14.154h1.486l3.806,13.992
					l2.691-10.141c0.21-0.766,0.35-1.602,0.35-2.089c0-0.626-0.303-1.044-0.836-1.229c-0.302-0.094-0.65-0.14-1.138-0.14v-0.579
					h5.292v0.579c-1.485,0.14-1.974,0.743-2.693,3.343l-3.597,12.995h-1.322l-3.853-14.226L123.247,801.142z"/>
				<path fill="#F8D45F" d="M144.386,797.312c-0.279,0.743-0.44,1.463-0.44,1.904c0,0.834,0.603,1.205,1.948,1.252v0.58h-5.429
					v-0.58c1.321,0,2.087-0.812,2.97-3.156l4.943-13.088l1.438-0.163l4.921,14.017c0.649,1.902,1.089,2.344,2.435,2.391v0.58h-5.986
					v-0.58c1.184-0.047,1.671-0.326,1.671-0.998c0-0.278-0.093-0.743-0.278-1.323l-0.975-2.924h-6.475L144.386,797.312z
					 M148.47,786.243l-3.016,8.122h5.848L148.47,786.243z"/>
				<path fill="#F8D45F" d="M168.172,798.102c0,1.369,0.094,1.811,0.417,2.065c0.232,0.209,0.835,0.302,1.765,0.302v0.58h-6.498
					v-0.58c0.998,0,1.554-0.117,1.787-0.348c0.302-0.256,0.37-0.721,0.37-2.02v-13.32c-4.153,0.047-4.827,0.58-5.407,4.361
					l-0.741-0.045l0.417-4.873h13.646l0.418,4.873l-0.743,0.045c-0.603-3.781-1.253-4.314-5.43-4.361V798.102z"/>
				<path fill="#F8D45F" d="M192.397,789.538c-0.208-1.438-0.533-2.298-1.159-3.132c-0.952-1.184-2.367-1.881-3.876-1.881
					c-1.671,0-3.226,0.857-4.062,2.251c-0.881,1.416-1.346,3.388-1.346,5.64c0,4.85,2.32,8.029,5.824,8.029
					c2.576,0,4.665-1.578,5.57-4.201l0.673,0.303c-0.511,1.346-1.091,2.273-1.903,3.062c-1.184,1.137-2.946,1.765-4.989,1.765
					c-2.088,0-3.968-0.812-5.337-2.275c-1.439-1.555-2.183-3.666-2.183-6.241c0-3.25,1.185-6.012,3.273-7.543
					c1.184-0.904,2.831-1.416,4.386-1.416c0.904,0,1.928,0.187,2.947,0.512c1.091,0.348,1.323,0.394,1.718,0.394
					c0.324,0,0.441-0.046,1.207-0.325v5.06H192.397z"/>
				<path fill="#F8D45F" d="M202.909,798.102c0,2.136,0.14,2.32,1.811,2.367v0.58h-5.709v-0.58c1.647-0.047,1.786-0.209,1.786-2.367
					v-10.93c0-2.158-0.114-2.299-1.786-2.368v-0.579h5.709v0.579c-1.694,0.069-1.811,0.21-1.811,2.368v4.618h8.771v-4.618
					c0-2.158-0.114-2.299-1.809-2.368v-0.579h5.709v0.579c-1.672,0.069-1.787,0.21-1.787,2.368v10.93
					c0,2.136,0.139,2.32,1.787,2.367v0.58h-5.709v-0.58c1.67-0.047,1.809-0.231,1.809-2.367v-5.569h-8.771V798.102z"/>
			</g>
		</g>
		<g>
			<g>
				<path fill="#F8D45F" d="M149.839,736.225l12.068-3.152l-0.285-1.093l-12.087,3.157c0.106,0.168,0.188,0.354,0.24,0.553
					C149.823,735.869,149.841,736.048,149.839,736.225z"/>
				<path fill="#F8D45F" d="M142.723,743.716l0.965,0.581l3.713-6.172c-0.376-0.088-0.717-0.284-0.98-0.559L142.723,743.716z"/>
				<path fill="#F8D45F" d="M146.687,734.584l-10.633-10.339l-0.472,0.485l10.634,10.34
					C146.343,734.887,146.502,734.72,146.687,734.584z"/>
				<path fill="#F8D45F" d="M149.02,737.798l1.508,1.466l0.471-0.485l-1.507-1.466C149.364,737.498,149.206,737.663,149.02,737.798z
					"/>
				<path fill="#F8D45F" d="M149.491,737.312c0.218-0.317,0.34-0.694,0.348-1.088c0.002-0.177-0.016-0.355-0.063-0.535
					c-0.052-0.199-0.134-0.385-0.24-0.553c-0.356-0.567-0.984-0.933-1.681-0.933c-0.169,0-0.338,0.022-0.504,0.065
					c-0.246,0.064-0.469,0.174-0.664,0.314c-0.185,0.136-0.344,0.303-0.471,0.486c-0.314,0.459-0.436,1.045-0.285,1.624
					c0.089,0.337,0.261,0.634,0.489,0.872c0.264,0.274,0.604,0.471,0.98,0.559c0.146,0.035,0.297,0.055,0.452,0.055l0,0
					c0.169,0,0.339-0.022,0.504-0.065c0.247-0.064,0.468-0.174,0.663-0.316C149.206,737.663,149.364,737.498,149.491,737.312z
					 M148.071,737.022c-0.072,0.019-0.146,0.028-0.219,0.028c-0.39,0-0.73-0.264-0.83-0.643c-0.119-0.457,0.155-0.927,0.614-1.047
					c0.071-0.02,0.145-0.029,0.218-0.029c0.391,0,0.731,0.264,0.829,0.643C148.803,736.434,148.528,736.902,148.071,737.022z"/>
			</g>
			<path fill="#F8D45F" d="M123.196,694.221c4.777,4.775,2.234,15.325,2.234,15.325s-0.396-4.033-1.029-7.487
				c-0.057-0.312-0.128-0.624-0.217-0.93c-1.641-4.642-15.914,9.039-11.582,11.009c0.788,0.393,1.574,0.591,2.429,0.703
				c0.427,0.081,0.863,0.142,1.305,0.182c15.923,1.475,39.639-16.679,61.021,4.704c11.811,11.811,8.583,31.766-2.629,42.977
				c-9.774,9.775-28.592,14.576-43.956,2.035c-18.336-14.963-7.44-40.264-7.44-40.264s-5.161,27.543,18.453,35.815
				c12.606,4.414,23.649-4.471,26.728-11.028c8.82-18.799-5.649-32.003-16.957-33.59c-9.552-1.34-35.656,9.096-43.604,2.082
				c-8.212-7.244-5.561-16.327-1.402-20.484C111.427,690.391,119.771,690.795,123.196,694.221z"/>
		</g>
	</g>
</g>
</svg>
